<mxfile host="app.diagrams.net" modified="2024-07-09T22:23:24.223Z" agent="Mozilla/5.0 (Windows NT 10.0; Win64; x64) AppleWebKit/537.36 (KHTML, like Gecko) Chrome/126.0.0.0 Safari/537.36" version="24.6.4" etag="QakcZSEsPXVcu08nxU1i" type="github">
  <diagram name="PÃ¡gina-1" id="s0t9kVnqnvc8j4LtGtNw">
    <mxGraphModel>
      <root>
        <mxCell id="0" />
        <mxCell id="1" parent="0" />
      </root>
    </mxGraphModel>
  </diagram>
</mxfile>
